<svg width="14" height="21" viewBox="0 0 14 21" fill="none" xmlns="http://www.w3.org/2000/svg">
<path d="M13.1389 13.7249C13.1389 14.5056 12.9127 15.2395 12.4602 15.9265C12.0259 16.6135 11.3744 17.1913 10.5057 17.6597C9.65509 18.1281 8.64162 18.4092 7.46528 18.5029V20.4H5.70076V18.5029C3.99958 18.3623 2.62416 17.9017 1.57449 17.121C0.524832 16.3403 0 15.3098 0 14.0294H3.31187C3.36616 14.6383 3.59238 15.1458 3.99053 15.5518C4.38868 15.9421 4.95875 16.192 5.70076 16.3013V11.1486C4.48822 10.8831 3.50189 10.6177 2.74179 10.3522C1.98169 10.0712 1.33018 9.63398 0.787247 9.04064C0.262416 8.4473 0 7.63536 0 6.60482C0 5.30884 0.524832 4.23926 1.57449 3.3961C2.62416 2.53731 3.99958 2.03766 5.70076 1.89713V0H7.46528V1.89713C9.05787 2.02204 10.3338 2.45924 11.2929 3.20873C12.2702 3.9426 12.8222 4.95752 12.9489 6.2535H9.637C9.5827 5.76946 9.36553 5.34007 8.98548 4.96533C8.60543 4.57497 8.09869 4.30953 7.46528 4.169V9.22801C8.67782 9.47784 9.66414 9.74328 10.4242 10.0243C11.1843 10.2898 11.8268 10.7192 12.3516 11.3125C12.8765 11.8902 13.1389 12.6944 13.1389 13.7249ZM3.14899 6.46429C3.14899 7.10448 3.36616 7.60413 3.8005 7.96326C4.25295 8.32239 4.88636 8.61125 5.70076 8.82985V4.09874C4.92256 4.17681 4.29819 4.41883 3.82765 4.8248C3.37521 5.23077 3.14899 5.77727 3.14899 6.46429ZM7.46528 16.3013C8.26157 16.192 8.88594 15.9187 9.33838 15.4815C9.79082 15.0287 10.017 14.49 10.017 13.8654C10.017 13.2409 9.79082 12.7568 9.33838 12.4133C8.90404 12.0542 8.27967 11.7653 7.46528 11.5467V16.3013Z" fill="#8600cf"/>
</svg>
